<?xml version="1.0" encoding="UTF-8" standalone="no"?>
<!DOCTYPE svg PUBLIC "-//W3C//DTD SVG 1.1//EN" "http://www.w3.org/Graphics/SVG/1.1/DTD/svg11.dtd">
<svg xmlns="http://www.w3.org/2000/svg" version="1.1" viewBox="0.00 0.00 290.00 392.00">
<path stroke="#de6908" stroke-width="2.00" fill="none" stroke-linecap="butt" vector-effect="non-scaling-stroke" d="
  M 155.61 53.64
  A 0.55 0.55 0.0 0 1 155.08 53.25
  L 146.82 26.90
  A 0.55 0.55 0.0 0 0 145.78 26.90
  L 137.52 53.25
  A 0.55 0.55 0.0 0 1 136.99 53.64
  L 109.38 53.35
  A 0.55 0.55 0.0 0 0 109.05 54.35
  L 131.56 70.34
  A 0.55 0.55 0.0 0 1 131.76 70.97
  L 122.95 97.14
  A 0.55 0.55 0.0 0 0 123.80 97.76
  L 145.97 81.29
  A 0.55 0.55 0.0 0 1 146.63 81.29
  L 168.80 97.76
  A 0.55 0.55 0.0 0 0 169.65 97.14
  L 160.84 70.97
  A 0.55 0.55 0.0 0 1 161.04 70.34
  L 183.55 54.35
  A 0.55 0.55 0.0 0 0 183.22 53.35
  L 155.61 53.64"
/>
<path fill="#fed10a" d="
  M 132.44 46.92
  Q 133.07 46.91 133.27 46.31
  L 146.07 6.76
  Q 146.35 5.90 146.63 6.76
  L 159.34 46.03
  A 1.07 1.06 -9.2 0 0 160.37 46.77
  C 174.04 46.65 187.96 47.40 201.60 47.45
  Q 202.62 47.45 201.79 48.04
  C 191.10 55.66 180.02 63.26 170.11 71.80
  A 3.51 3.50 60.7 0 0 169.06 75.54
  L 181.04 112.54
  Q 181.41 113.71 180.42 112.99
  L 146.59 88.42
  A 0.37 0.37 0.0 0 0 146.15 88.42
  L 112.88 112.39
  Q 111.54 113.36 112.04 111.78
  L 123.95 74.49
  A 2.51 2.51 0.0 0 0 123.24 71.85
  Q 121.27 70.08 119.04 68.42
  Q 105.32 58.20 90.85 47.89
  Q 90.39 47.57 90.95 47.56
  L 132.44 46.92
  Z
  M 155.61 53.64
  A 0.55 0.55 0.0 0 1 155.08 53.25
  L 146.82 26.90
  A 0.55 0.55 0.0 0 0 145.78 26.90
  L 137.52 53.25
  A 0.55 0.55 0.0 0 1 136.99 53.64
  L 109.38 53.35
  A 0.55 0.55 0.0 0 0 109.05 54.35
  L 131.56 70.34
  A 0.55 0.55 0.0 0 1 131.76 70.97
  L 122.95 97.14
  A 0.55 0.55 0.0 0 0 123.80 97.76
  L 145.97 81.29
  A 0.55 0.55 0.0 0 1 146.63 81.29
  L 168.80 97.76
  A 0.55 0.55 0.0 0 0 169.65 97.14
  L 160.84 70.97
  A 0.55 0.55 0.0 0 1 161.04 70.34
  L 183.55 54.35
  A 0.55 0.55 0.0 0 0 183.22 53.35
  L 155.61 53.64
  Z"
/>
<path fill="#770104" d="
  M 155.61 53.64
  L 183.22 53.35
  A 0.55 0.55 0.0 0 1 183.55 54.35
  L 161.04 70.34
  A 0.55 0.55 0.0 0 0 160.84 70.97
  L 169.65 97.14
  A 0.55 0.55 0.0 0 1 168.80 97.76
  L 146.63 81.29
  A 0.55 0.55 0.0 0 0 145.97 81.29
  L 123.80 97.76
  A 0.55 0.55 0.0 0 1 122.95 97.14
  L 131.76 70.97
  A 0.55 0.55 0.0 0 0 131.56 70.34
  L 109.05 54.35
  A 0.55 0.55 0.0 0 1 109.38 53.35
  L 136.99 53.64
  A 0.55 0.55 0.0 0 0 137.52 53.25
  L 145.78 26.90
  A 0.55 0.55 0.0 0 1 146.82 26.90
  L 155.08 53.25
  A 0.55 0.55 0.0 0 0 155.61 53.64
  Z"
/>
<path fill="#fed10a" d="
  M 96.73 316.85
  C 94.62 320.56 92.70 323.08 88.97 325.28
  C 82.63 329.02 76.49 333.86 72.32 339.50
  C 68.71 344.37 66.44 350.50 63.64 355.99
  C 57.45 368.12 45.67 376.29 31.76 376.99
  C 25.05 377.32 22.27 375.82 22.13 368.64
  C 21.75 348.57 36.95 338.69 52.79 330.82
  Q 61.73 326.38 67.83 318.99
  C 70.64 315.59 72.65 311.48 75.16 307.79
  C 76.86 305.29 79.71 303.93 82.26 302.55
  Q 87.99 299.45 94.26 298.83
  Q 96.19 298.63 100.64 295.20
  Q 101.04 294.89 101.43 295.21
  Q 108.50 301.00 109.11 301.44
  C 120.01 309.48 132.47 315.03 146.16 315.80
  Q 164.46 316.84 181.55 309.79
  A 0.67 0.66 -33.3 0 0 181.78 308.71
  L 106.78 230.44
  A 0.35 0.35 0.0 0 0 106.28 230.43
  L 77.95 258.70
  Q 77.50 259.15 77.05 258.70
  L 47.72 229.33
  A 0.39 0.38 45.5 0 1 47.72 228.78
  L 108.45 169.04
  A 1.13 1.13 0.0 0 1 109.38 168.73
  L 158.55 175.59
  A 0.71 0.71 0.0 0 1 159.01 176.73
  Q 156.60 179.88 153.82 182.72
  Q 139.51 197.30 123.59 213.11
  Q 122.28 214.40 123.62 215.67
  L 204.03 291.62
  Q 204.41 291.98 204.73 291.57
  Q 217.61 275.53 219.88 254.86
  Q 220.13 252.56 220.07 245.47
  Q 220.02 240.37 219.50 236.09
  C 216.05 207.68 204.57 179.49 185.20 158.26
  Q 171.66 143.41 155.90 132.78
  Q 154.12 131.59 156.13 132.32
  C 203.91 149.70 237.82 188.07 248.76 237.98
  Q 250.17 244.41 250.14 251.15
  C 250.10 260.16 250.78 270.56 248.78 279.47
  Q 244.24 299.60 232.24 316.37
  A 1.20 1.20 0.0 0 0 232.38 317.93
  Q 247.87 332.97 263.00 348.08
  C 266.73 351.81 271.63 357.00 270.49 362.70
  Q 268.72 371.59 260.05 375.81
  C 251.10 380.17 243.81 373.10 238.02 367.01
  Q 223.73 352.00 209.35 336.91
  A 0.50 0.48 -35.3 0 0 208.77 336.82
  C 196.10 343.73 183.77 347.20 169.99 347.49
  C 160.83 347.67 152.15 347.54 143.38 345.00
  Q 121.07 338.56 105.56 324.45
  Q 101.50 320.76 97.72 316.73
  Q 97.14 316.11 96.73 316.85
  Z"
/>
</svg>
